<?xml version="1.0" encoding="UTF-8" standalone="no"?>
<!-- Generator: Adobe Illustrator 14.0.0, SVG Export Plug-In . SVG Version: 6.00 Build 43363)  -->

<svg
   xmlns:dc="http://purl.org/dc/elements/1.1/"
   xmlns:cc="http://creativecommons.org/ns#"
   xmlns:rdf="http://www.w3.org/1999/02/22-rdf-syntax-ns#"
   xmlns:svg="http://www.w3.org/2000/svg"
   xmlns="http://www.w3.org/2000/svg"
   xmlns:sodipodi="http://sodipodi.sourceforge.net/DTD/sodipodi-0.dtd"
   xmlns:inkscape="http://www.inkscape.org/namespaces/inkscape"
   version="1.1"
   id="Layer_1"
   x="0px"
   y="0px"
   width="192.756"
   height="192.756"
   viewBox="0 0 192.756 192.756"
   enable-background="new 0 0 612 792"
   xml:space="preserve"
   sodipodi:docname="batman-9.svg"
   inkscape:version="0.92.3 (2405546, 2018-03-11)"><metadata
   id="metadata15"><rdf:RDF><cc:Work
       rdf:about=""><dc:format>image/svg+xml</dc:format><dc:type
         rdf:resource="http://purl.org/dc/dcmitype/StillImage" /><dc:title></dc:title></cc:Work></rdf:RDF></metadata><defs
   id="defs13" /><sodipodi:namedview
   pagecolor="#ffffff"
   bordercolor="#666666"
   borderopacity="1"
   objecttolerance="10"
   gridtolerance="10"
   guidetolerance="10"
   inkscape:pageopacity="0"
   inkscape:pageshadow="2"
   inkscape:window-width="1920"
   inkscape:window-height="1017"
   id="namedview11"
   showgrid="false"
   fit-margin-top="0"
   fit-margin-left="0"
   fit-margin-right="0"
   fit-margin-bottom="0"
   inkscape:zoom="3.3712566"
   inkscape:cx="114.9872"
   inkscape:cy="83.548478"
   inkscape:window-x="-8"
   inkscape:window-y="-8"
   inkscape:window-maximized="1"
   inkscape:current-layer="g8" />
<g
   id="g8"
   transform="translate(-209,-300)">
	<polygon
   points="209,300 401.756,300 401.756,492.756 209,492.756 "
   id="polygon2"
   style="clip-rule:evenodd;fill:#ffffff;fill-rule:evenodd" />
	<path
   d="m 305.378,347.01 c 48.53,0 87.874,22.104 87.874,49.368 0,27.265 -39.344,49.367 -87.874,49.367 -48.531,0 -87.874,-22.103 -87.874,-49.367 0,-27.264 39.343,-49.368 87.874,-49.368 z"
   id="path4"
   inkscape:connector-curvature="0" />
	<path
   d="m 335.381,362.068 c 0,0 8.182,11.324 4.426,17.192 -2.754,4.305 -7.377,5.384 -11.266,5.384 -11.438,0 -11.85,-6.506 -11.85,-6.506 l -1.571,-19.8 -5.343,8.486 h -8.8 l -5.343,-8.486 -1.571,19.8 c 0,0 -0.413,6.506 -11.851,6.506 -3.888,0 -8.51,-1.08 -11.265,-5.384 -3.756,-5.869 4.426,-17.192 4.426,-17.192 -22.527,6.229 -38.03,19.251 -38.03,34.31 0,11.756 9.451,22.27 24.313,29.281 -1.76,-2.483 -6.095,-9.704 -1.222,-14.834 5.972,-6.285 15.4,-2.513 19.486,3.772 0,0 0.314,-7.229 7.543,-6.285 7.229,0.941 16.657,9.429 17.914,19.484 1.257,-10.056 10.686,-18.543 17.914,-19.484 7.229,-0.944 7.543,6.285 7.543,6.285 4.086,-6.285 13.515,-10.058 19.487,-3.772 4.872,5.13 0.537,12.351 -1.223,14.834 14.862,-7.012 24.313,-17.525 24.313,-29.281 0,-15.058 -15.504,-28.08 -38.03,-34.31 z m -30.003,-10.137 c 43.694,0 79.116,19.9 79.116,44.447 0,24.547 -35.422,44.448 -79.116,44.448 -43.695,0 -79.118,-19.901 -79.118,-44.448 0,-24.547 35.423,-44.447 79.118,-44.447 z"
   id="path6"
   inkscape:connector-curvature="0"
   style="fill:#ffdd00" />
</g>
</svg>